<svg width="32" height="32" viewBox="0 0 450 500" fill="none" xmlns="http://www.w3.org/2000/svg">
<path d="M370 0C414.183 0 450 35.8172 450 80V420C450 464.183 414.183 500 370 500H80C35.8172 500 0 464.183 0 420V80C2.3583e-05 35.8173 35.8173 2.57867e-05 80 0H370ZM223.15 147C203.516 147 186.849 151.338 173.15 160.014C159.452 168.689 148.996 180.744 141.781 196.178C134.658 211.611 131.096 229.465 131.096 249.739C131.096 270.013 134.658 287.868 141.781 303.302C143.839 307.704 146.162 311.83 148.747 315.683L130 336.315L147.397 351.932L164.499 333.18C167.223 335.441 170.106 337.538 173.15 339.466C186.849 348.142 203.516 352.479 223.15 352.479C242.876 352.479 259.589 348.142 273.288 339.466C286.986 330.79 297.397 318.735 304.521 303.302C311.644 287.868 315.205 270.013 315.205 249.739C315.205 229.465 311.644 211.611 304.521 196.178C302.836 192.528 300.965 189.068 298.912 185.796L319.041 163.575L301.644 147.959L283.659 167.779C280.441 164.945 276.985 162.355 273.288 160.014C259.589 151.338 242.876 147 223.15 147ZM280.574 205.148C281.041 206.156 281.49 207.184 281.918 208.232C286.849 220.104 289.315 233.94 289.315 249.739C289.315 265.447 286.849 279.283 281.918 291.246C277.078 303.21 269.726 312.571 259.863 319.329C250.092 325.996 237.854 329.283 223.15 329.191C208.447 329.1 196.165 325.721 186.302 319.055C184.37 317.719 182.534 316.281 180.791 314.745L280.574 205.148ZM223.15 170.288C237.854 170.379 250.092 173.758 259.863 180.425C262.495 182.203 264.945 184.169 267.219 186.318L166.722 296.461C165.838 294.739 165.013 292.955 164.246 291.109C159.315 279.237 156.895 265.447 156.986 249.739C157.078 233.94 159.589 220.059 164.521 208.096C169.452 196.132 176.758 186.817 186.438 180.15C196.21 173.484 208.447 170.197 223.15 170.288Z" fill="#66FFFF"/>
</svg>
